<svg width="1900" height="1003" viewBox="0 0 1900 1003" fill="none" xmlns="http://www.w3.org/2000/svg">
<path id="Alaska" fill-rule="evenodd" clip-rule="evenodd" d="M111.423 440.745C106.452 446.533 98.7005 444.593 100.523 436.324C100.205 427.8 101.156 419.085 91.8845 415.364C85.6951 414.41 82.3301 428.436 74.0892 419.371C72.5212 417.654 72.3463 410.37 70.193 408.685C65.6735 405.09 58.9243 407.221 57.8238 404.709C54.6814 397.521 52.4804 392.718 51.4054 389.728C47.805 379.741 52.121 373.285 53.2915 365.015C53.6413 363.425 58.0528 361.23 58.4949 358.177C58.9911 354.742 55.4829 350.162 54.9963 344.023C54.675 339.952 63.2658 341.384 64.6207 338.775C66.8248 334.514 62.4165 327.039 62.6964 323.413C63.0208 312.886 74.9416 319.024 76.2616 308.592C78.5643 301.626 86.1881 298.032 88.017 290.685C91.4901 283.974 92.7242 274.941 100.52 271.824C104.753 265.94 110.036 261.201 116.416 257.734C121.33 252.995 132.373 246.189 134.695 257.003C134.441 266.831 144.078 266.831 148.944 260.088C151.52 257.544 157.722 252.487 155.337 260.088C158.104 271.125 143.187 267.849 140.929 276.5C138.925 284.674 145.604 292.18 148.88 299.305C154.446 303.63 162.875 297.778 166.914 305.602C172.162 311.677 173.911 320.01 170.858 327.516C164.815 336.231 169.904 347.84 179.796 351.021C186.284 355.346 194.999 356.746 199.292 363.966C197.543 372.172 188.383 377.324 182.913 383.653C176.233 389.665 169.077 394.436 160.362 396.344C154.16 400.988 143.251 404.518 142.933 413.201C143.823 420.993 131.642 423.442 127.211 428.977C122.008 433.016 115.891 435.815 111.423 440.745Z" fill="black" stroke="white" stroke-width="0.90961"/>
<path id="Yukon" fill-rule="evenodd" clip-rule="evenodd" d="M237.046 180.129C227.154 179.302 221.016 189.989 210.775 186.999C205.336 185.663 194.013 187.54 199.547 195.173C204.7 194.919 215.863 196.795 209.121 203.634C201.583 208.723 197.543 221.19 185.68 217.501C176.838 217.819 173.816 233.022 178.269 237.443C183.708 239.479 195.031 232.481 190.673 242.755C185.584 245.585 182.245 250.579 188.988 254.109C191.628 263.46 188.892 275.419 178.301 277.995C173.276 279.299 162.271 268.263 163.002 279.172C165.579 287.251 160.458 293.485 159.345 300.609C167.646 303.217 174.007 313.809 171.972 322.778C169.523 330.602 164.529 341.543 173.816 347.268C181.863 353.788 192.932 355.442 199.674 363.68C203.364 368.483 201.964 357.192 208.135 356.842C216.468 352.103 225.246 347.173 234.979 346.537C249.355 346.791 263.954 347.777 278.107 344.819C288.19 343.261 295.823 334.132 306.351 334.355C312.457 332.924 324.989 335.373 327.024 329.393C323.621 322.237 315.956 318.039 309.34 315.144C309.309 304.49 300.817 296.443 304.474 285.024C305.619 273.606 292.07 272.143 286.059 265.305C279.888 259.357 276.231 251.183 269.711 245.394C268.725 240.91 276.008 235.948 270.951 230.478C272.096 220.395 280.62 211.808 279.189 200.707C276.231 193.329 276.135 182.26 265.989 180.924C256.479 179.334 246.651 180.447 237.046 180.129Z" fill="black" stroke="white" stroke-width="0.90961"/>
<path id="Oregon" fill-rule="evenodd" clip-rule="evenodd" d="M347.984 321.76C346.394 324.75 344.136 327.358 340.51 329.234C335.294 329.17 330.173 327.707 324.925 326.054C325.688 327.071 326.42 328.216 326.992 329.425C324.957 335.373 312.425 332.955 306.319 334.387C295.791 334.164 288.189 343.26 278.107 344.819C263.953 347.777 249.355 346.759 234.978 346.505C225.246 347.141 216.468 352.102 208.134 356.841C201.964 357.191 203.364 368.514 199.674 363.712C196.239 360.117 196.08 359.958 199.292 363.902C197.543 372.14 188.351 377.356 182.881 383.686C176.202 389.697 169.013 394.372 160.33 396.312C154.128 400.956 143.251 404.55 142.933 413.201C143.823 421.025 131.674 423.475 127.227 429.009C122.02 433.016 115.892 435.815 111.423 440.745C111.391 440.777 111.353 440.809 111.324 440.84C111.588 442.303 111.887 443.767 112.616 445.198C114.079 448.156 116.788 449.587 118.28 452.577C119.753 455.503 121.661 457.22 121.661 461.101C121.661 464.377 120.872 468.798 121.661 471.946C122.669 475.986 123.872 478.657 125.637 482.188C126.849 484.605 128.016 488.517 131.292 487.849C134.886 487.118 138.289 485.178 141.533 484.382C143.791 483.81 147.799 482.188 147.799 478.721V469.656C147.799 467.971 149.294 462.023 152.379 465.076C153.651 466.349 155.464 468.67 157.436 469.656C159.726 470.801 163.702 472.773 163.702 475.318V483.874V494.115C163.702 497.2 164.656 498.949 166.596 500.858C168.346 502.607 169.84 507.028 172.258 508.237C175.438 509.827 178.905 509.509 182.976 510.527C185.902 511.227 189.369 511.099 192.613 511.099H203.459H212.492C214.464 511.099 219.076 510.336 220.443 511.704C221.62 512.849 222.892 515.679 225.023 515.679H233.579C236.473 515.679 239.59 515.743 242.135 514.503C244.488 513.326 245.792 512.244 247.192 509.414C247.574 508.65 249.705 503.879 251.168 503.148C251.835 502.83 252.472 502.607 253.171 502.353C247.192 491.443 270.06 481.202 275.022 470.77C284.118 457.602 279.188 439.473 293.406 428.309C297.795 410.72 308.672 394.818 329.282 399.207C345.503 398.889 362.01 392.655 376.609 388.075C382.334 383.749 388.314 379.583 394.58 376.148C394.548 376.052 394.516 375.989 394.484 375.925C392.385 369.5 389.872 364.825 380.776 365.016C369.803 363.298 367.258 359.64 365.064 348.413C359.212 340.493 350.02 332.192 347.984 321.76Z" fill="black" stroke="white" stroke-width="0.90961"/>
<path id="California" fill-rule="evenodd" clip-rule="evenodd" d="M394.578 376.146C388.312 379.582 382.333 383.748 376.608 388.074C362.009 392.654 345.502 398.888 329.281 399.206C308.671 394.816 297.793 410.719 293.404 428.308C279.187 439.472 284.116 457.601 275.02 470.769C269.422 482.537 241.083 494.019 256.827 506.55C269.74 507.536 282.781 505.691 295.312 509.921C304.409 521.467 323.397 509.254 336.437 514.183C348.778 523.693 362.2 530.054 376.512 535.843C379.057 548.597 388.439 540.9 394.196 550.569C400.366 543.604 410.703 540.137 418.655 550.06C426.161 536.797 437.007 550.41 444.99 556.135C461.529 553.145 441.396 539.596 440.314 530.977C432.872 512.307 407.523 530.277 401.639 511.607C390.316 506.932 383.064 498.376 367.956 500.284C353.548 502.415 340.063 481.169 356.029 474.744C361.214 475.094 366.525 475.476 371.837 475.73C369.26 470.005 373.968 460.4 377.085 455.661C386.276 446.278 392.701 472.868 399.667 457.728C404.024 450.222 410.417 443.511 417.637 438.74C425.334 436.387 433.603 436.609 441.618 436.355C450.81 435.909 459.684 433.938 468.94 434.987C472.883 433.874 476.318 434.128 479.086 435.464C487.609 428.594 497.247 423.473 506.916 417.176C506.025 410.815 510.096 407.793 512.768 403.563C500.872 402.736 489.009 401.178 477.082 400.382C465.664 399.11 454.054 397.52 443.59 392.336C435.289 387.151 428.864 390.268 421.04 387.151C414.075 378.532 399.858 385.275 394.578 376.146Z" fill="black" stroke="white" stroke-width="0.90961"/>
<path id="México" fill-rule="evenodd" clip-rule="evenodd" d="M373.938 478.307C367.608 473.472 373.429 461.291 377.118 455.693C386.278 446.342 392.671 472.9 399.637 457.792C403.994 450.254 410.387 443.479 417.607 438.708C425.304 436.355 433.573 436.577 441.557 436.355C450.78 435.91 459.718 433.938 468.973 434.987C478.197 432.443 484.463 437.277 486.371 446.087C488.343 456.901 496.74 463.962 507.935 461.768C516.555 464.471 514.742 483.141 526.446 479.674C531.599 477.893 536.369 480.024 534.684 486.163C540.091 491.76 537.292 502.829 547.756 503.529C551.445 510.971 559.492 505.087 564.009 512.243C568.398 517.237 561.019 524.616 567.73 528.305C562.132 534.03 578.512 535.366 571.801 543.445C564.231 549.615 582.329 545.448 582.361 552.796C587.418 560.747 582.329 573.215 573.105 575.028C564.645 573.819 562.45 560.938 553.354 558.68C545.021 556.994 535.034 560.015 529.977 550.824C521.262 543.604 509.462 545.417 500.556 540.36C495.372 528.019 480.423 539.883 474.507 529.418C465.697 528.782 460.799 522.039 462.803 513.452C460.004 504.324 449.031 502.956 440.889 504.037C430.138 503.083 420.088 490.87 409.496 496.118C400.432 505.914 392.926 491.824 386.215 486.894C382.175 483.968 378.104 481.042 373.938 478.307Z" fill="black" stroke="white" stroke-width="0.90961"/>
<path id="Nueva York" fill-rule="evenodd" clip-rule="evenodd" d="M407.907 259.135C407.271 259.389 406.635 259.707 405.935 259.834C406.635 259.675 407.239 259.421 407.907 259.135ZM386.629 259.644C378.169 259.803 370.758 261.934 373.621 272.875C374.861 283.943 368.023 297.302 355.937 297.206C351.484 304.426 351.929 314.318 347.985 321.76C350.021 332.193 359.213 340.494 365.065 348.413C367.26 359.641 369.804 363.299 380.777 365.016C389.873 364.825 392.386 369.501 394.485 375.925C399.67 385.372 414.046 378.47 421.043 387.153C428.867 390.27 435.292 387.153 443.593 392.337C454.057 397.522 465.666 399.112 477.085 400.384C490.189 401.243 503.197 403.151 516.238 403.851C528.801 407.922 533.095 395.009 537.42 387.375C539.551 398.762 550.969 392.592 558.189 395.804C573.265 396.44 571.071 387.153 580.771 397.203C582.171 402.769 586.051 407.445 586.337 413.393C582.616 416.987 579.626 427.228 589.2 424.747C598.996 425.447 610.732 416.032 600.65 407.254C607.138 403.596 607.138 395.868 603.608 389.538C592.317 387.026 605.325 381.269 603.703 374.939C604.912 365.302 590.854 371.091 592.476 364.094C600.936 360.054 599.855 349.495 591.903 346.314C590.504 350.608 587.514 354.011 581.662 354.457C572.756 353.757 566.65 360.913 557.998 360.913C550.683 364.539 542.064 364.062 535.226 359.545C526.829 357.86 518.655 355.506 510.672 352.389C501.353 350.703 495.15 342.37 485.736 340.939C478.802 336.9 471.741 341.957 464.458 340.748C457.429 341.448 449.35 341.575 446.583 333.592C443.434 323.001 425.719 332.32 426.991 320.679C425.655 312.028 427.881 303.631 427.881 295.043C426.545 286.488 417.735 281.59 411.978 275.96C409.879 272.938 406.762 270.903 404.918 267.691C404.154 265.178 403.9 262.538 404.027 260.153C403.136 260.216 402.15 260.153 401.165 260.057C397.189 260.184 391.75 259.548 386.629 259.644Z" fill="black" stroke="white" stroke-width="0.90961"/>
<path id="Terranova" fill-rule="evenodd" clip-rule="evenodd" d="M420.15 248.416C415.665 253.982 411.117 259.612 404.024 260.152C403.897 262.538 404.152 265.178 404.915 267.69C406.76 270.903 409.877 272.938 411.976 275.96C417.733 281.589 426.543 286.487 427.879 295.043C427.879 303.631 425.652 312.027 426.988 320.679C425.716 332.319 443.432 323 446.58 333.592C449.348 341.575 457.426 341.448 464.455 340.748C471.739 341.957 478.8 336.9 485.733 340.939C495.148 342.37 501.35 350.703 510.669 352.389C518.652 355.506 526.826 357.859 535.223 359.545C542.061 364.062 550.681 364.539 557.996 360.913C566.647 360.913 572.754 353.757 581.659 354.456C593.205 353.534 593.682 341.511 592.378 332.797C590.374 323.414 602.619 318.039 599.725 309.451C595.877 302.263 583.472 309.26 577.97 304.076C572.149 300.1 563.498 301.754 556.787 302.995C547.882 307.511 547.532 294.025 537.926 295.139C530.834 299.591 522.755 301.086 515.249 296.125C507.043 294.407 509.715 284.579 504.117 279.172C495.466 277.964 490.631 274.592 484.143 276.437C474.888 280.826 476.382 267.436 470.912 265.114C464.105 262.633 458.444 272.016 450.938 267.499C446.199 259.643 436.53 262.633 429.882 257.258C427.911 253.187 424.285 249.243 420.15 248.416Z" fill="black" stroke="white" stroke-width="0.90961"/>
<path id="Labrador" fill-rule="evenodd" clip-rule="evenodd" d="M563.849 211.839C556.47 216.069 555.865 213.557 546.578 213.62C540.217 208.977 539.072 218.391 533.633 218.487C528.417 220.236 523.551 223.417 517.826 221.476C508.984 218.9 511.369 229.937 511.687 235.089C512.005 239.542 516.235 248.13 510.097 249.815C504.404 250.292 503.322 257.131 503.322 261.742C502.877 267.34 508.952 273.86 504.626 278.918C504.436 279.013 504.277 279.045 504.118 279.14C509.747 284.579 507.044 294.407 515.25 296.124C522.756 301.086 530.834 299.591 537.927 295.138C547.532 294.025 547.882 307.511 556.788 302.994C563.499 301.754 572.15 300.1 577.97 304.076C583.377 309.165 595.495 302.517 599.535 309.133C602.556 306.557 606.436 305.157 608.377 301.277C613.243 300.545 619.731 299.21 620.813 293.453C620.813 287.696 622.785 280.794 618.523 276.055C614.801 271.984 607.613 269.789 608.186 263.015C605.641 257.862 612.48 251.215 608.186 247.621C603.192 245.426 596.068 254.713 593.873 246.126C593.428 242.023 595.718 231.304 588.721 233.213C583.568 237.443 585.89 229.046 582.042 228.346C575.299 227.615 574.281 219.886 571.228 215.211C569.796 212.952 566.743 211.744 563.849 211.839Z" fill="black" stroke="white" stroke-width="0.90961"/>
<path id="Groenlandia" fill-rule="evenodd" clip-rule="evenodd" d="M653.064 43.0141C648.484 46.7036 642.505 52.4286 643.109 56.7224C643.364 58.3445 643.046 61.7795 641.328 62.4793C637.003 64.2922 627.874 61.6523 626.538 63.6879C624.312 67.0593 625.457 73.2296 624.026 76.2829C617.537 90.3729 620.718 84.9023 621.958 91.8996C623.167 98.9286 631.532 95.7799 629.019 104.336C626.507 112.796 610.127 106.339 602.684 111.269C594.828 107.898 587.831 109.584 583.982 117.758C573.518 126.345 598.295 137.795 581.406 140.403C570.56 143.17 566.267 169.824 581.597 167.057C591.33 168.647 606.978 160.059 612.099 171.827C617.378 186.617 623.358 160.155 631.786 170.619C641.646 175.103 642.028 189.957 655.354 187.603C667.091 189.829 660.761 206.877 664.292 215.433C668.331 229.968 662.702 244.472 660.602 258.784C666.995 263.46 681.467 258.816 681.276 271.697C687.065 278.027 696.098 274.496 700.073 269.312C707.452 277.931 709.997 288.904 710.601 299.845C713.75 310.469 741.453 315.049 734.169 298.732C736.395 286.932 740.626 275.609 747.178 265.654C754.747 260.565 768.519 261.806 768.869 248.447C772.145 236.266 749.976 229.078 761.013 217.151C774.658 218.041 771.127 204.078 763.685 197.94C756.528 189.607 775.739 193.487 770.046 183.15C771.922 173.545 761.554 165.911 765.084 157.292C767.692 155.861 781.846 158.533 787.03 153.03C790.179 149.691 773.926 147.56 775.803 142.98C776.82 140.594 784.836 142.566 787.348 140.022C788.461 138.877 788.811 135.41 789.829 134.138C793.169 130.035 798.925 140.531 801.343 137.636C802.329 136.428 809.071 131.816 809.103 127.395C809.135 125.804 808.944 123.133 808.722 120.429C762.349 86.1427 709.838 59.6803 653.16 43.0141C653.128 43.0141 653.096 42.9823 653.064 43.0141Z" fill="black" stroke="white" stroke-width="0.90961"/>
<path id="Canadá" fill-rule="evenodd" clip-rule="evenodd" d="M419.484 95.7802C413.441 95.5257 402.214 96.2891 398.461 99.8195C394.867 103.159 398.747 109.298 392.927 109.616C388.41 109.902 382.272 101.823 378.264 106.403C375.179 109.934 375.338 116.549 372.03 117.599C365.606 119.634 358.068 109.425 351.166 108.852C349.321 108.852 338.921 108.407 333.259 113.401C330.556 115.818 332.241 124.469 330.269 125.614C322.095 130.353 319.614 125.773 315.989 126.25C309.532 127.141 326.803 103.445 303.298 107.517C275.118 111.747 296.969 124.692 296.364 129.081C295.601 134.647 291.784 135.601 287.554 139.036C284.787 142.28 289.526 148.196 286.791 152.267C284.024 156.338 274.832 156.434 272.192 157.642C268.598 159.296 258.039 154.43 254.381 158.978C250.532 163.59 249.419 175.676 245.603 180.129C252.441 180.002 259.279 179.811 265.99 180.924C276.136 182.26 276.231 193.328 279.189 200.707C280.621 211.808 272.097 220.363 270.952 230.414C276.041 235.916 268.662 240.942 269.648 245.426C276.2 251.215 279.889 259.357 286.059 265.305C292.071 272.143 305.588 273.606 304.443 284.992C300.785 296.411 309.278 304.458 309.309 315.112C314.844 317.498 321.014 320.869 324.926 326.054C330.174 327.708 335.295 329.171 340.511 329.234C353.17 322.682 349.671 307.32 355.937 297.206C368.023 297.301 374.861 283.943 373.621 272.874C369.072 255.35 390.605 260.407 401.164 260.057C414.809 261.52 419.675 245.426 429.09 239.16L430.171 237.984L431.475 236.775C435.101 228.251 442.544 216.101 451.354 226.438C461.532 228.06 480.965 211.012 468.751 203.474C452.435 208.627 463.058 181.115 475.017 186.49C482.619 191.261 497.79 176.789 483.541 176.758C471.614 177.584 471.709 160.632 482.269 159.169C475.144 148.546 487.103 148.864 494.101 148.832C503.42 143.87 495.914 133.025 487.135 136.014C477.593 129.908 472.823 118.808 464.458 112.256C456.188 112.51 451.386 118.776 443.498 113.051C431.443 113.178 451.163 92.3134 434.242 95.8438C432.557 95.5576 421.17 95.8438 419.484 95.7802Z" fill="black" stroke="white" stroke-width="0.90961"/>
<path id="Colombia" fill-rule="evenodd" clip-rule="evenodd" d="M677.554 529.483C675.677 529.737 674.246 531.328 674.373 534.763C668.712 535.494 662.892 532.918 657.198 534.063C656.88 540.424 650.01 543.796 644.571 539.343C637.193 534.54 631.499 544.273 626.983 548.789C621.512 552.765 616.01 556.518 611.08 561.193C604.464 565.201 596.195 563.133 589.102 563.579C587.289 561.702 585.763 560.907 584.331 560.907C583.982 566.759 580.324 572.548 574.885 574.52C576.316 579.482 580.451 584.761 575.203 588.928C567.57 588.642 571.832 600.664 573.995 604.544C575.712 604.863 577.207 605.849 578.384 607.121C582.296 613.45 586.78 619.525 590.311 626.109C592.06 633.583 598.453 630.657 603.606 628.78C608.027 623.819 613.943 621.91 620.526 622.228C626.887 619.938 630.227 611.001 637.797 611.796C644.253 613.927 651.95 614.881 659.266 614.468C667.249 615.358 674.85 613.546 682.039 610.206C689.704 612.273 689.958 601.173 696.351 602.064C703.603 608.075 706.974 596.593 709.169 591.504C711.491 586.479 708.692 575.283 717.216 577.7C723.672 576.651 725.803 568.286 728.761 563.292C728.825 556.645 730.129 548.503 724.181 543.796C719.41 538.134 711.014 538.897 704.303 539.152C697.814 539.724 688.845 545.577 685.41 536.544C685.092 532.314 680.703 529.101 677.554 529.483Z" fill="black" stroke="white" stroke-width="0.90961"/>
<path id="Perú" fill-rule="evenodd" clip-rule="evenodd" d="M692.28 603.432C689.29 606.167 687.668 611.733 682.038 610.206C674.85 613.546 667.249 615.359 659.266 614.468C651.95 614.882 644.253 613.928 637.797 611.797C630.227 611.001 626.887 619.939 620.526 622.229C613.942 621.911 608.027 623.819 603.606 628.781C598.453 630.657 592.06 633.583 590.311 626.109C589.738 625.06 589.102 624.042 588.498 623.024C587.735 625.473 591.106 629.131 591.488 629.894C593.046 633.011 593.173 634.665 593.173 638.545V647.673C593.173 650.377 597.912 650.886 600.139 651.458C600.425 651.522 600.139 659.982 600.139 660.587C600.139 664.022 598.453 664.976 595.272 664.976C592.505 664.976 596.227 669.206 596.227 671.655C596.227 674.549 601.665 673.15 602.969 675.758C604.464 678.779 604.305 680.433 606.595 682.151C609.235 684.155 608.186 689.466 608.186 692.392C608.186 696.05 613.879 692.997 615.31 695.859C615.819 696.877 616.105 701.743 617.346 702.029C620.304 702.793 622.148 703.652 623.802 705.814C624.025 706.132 624.184 706.419 624.375 706.705C624.629 706.26 624.725 706.132 625.074 705.433C628.35 698.849 636.652 697.131 643.458 697.577C649.438 700.248 658.057 701.298 660.76 707.913C659.488 713.67 661.715 718.505 666.326 721.017C667.185 719.3 668.108 717.646 669.125 716.056C675.486 708.772 671.638 698.594 677.649 691.502C680.512 688.321 684.424 686.922 688.4 686.922C693.52 686.953 698.8 689.371 702.012 693.506C708.405 698.149 713.303 704.351 719.315 709.408C724.785 711.794 731.528 711.667 737.603 709.79C736.394 708.868 735.345 707.754 734.422 706.419C726.789 697.577 729.397 684.123 728.666 673.023C722.591 664.626 719.665 653.176 708.278 650.25C700.072 640.835 709.232 627.954 704.398 617.458C698.196 614.182 694.665 609.157 692.28 603.432ZM666.326 721.017C666.867 721.335 667.408 721.59 668.012 721.813C667.44 721.59 666.867 721.304 666.326 721.017ZM671.415 724.516C671.638 724.898 671.861 725.311 671.988 725.693C671.861 725.279 671.638 724.93 671.415 724.516Z" fill="black"/>
<path id="Brasil" fill-rule="evenodd" clip-rule="evenodd" d="M752.011 542.015C743.456 544.75 737.699 551.271 728.761 552.861C729.175 556.296 728.793 559.954 728.761 563.293C725.804 568.287 723.673 576.652 717.216 577.701C708.692 575.284 711.491 586.48 709.169 591.505C706.975 596.594 703.603 608.076 696.351 602.064C694.634 601.81 693.362 602.446 692.28 603.432C694.666 609.157 698.196 614.182 704.398 617.458C709.233 627.954 700.073 640.836 708.279 650.25C719.665 653.176 722.591 664.626 728.666 673.023C729.398 684.123 726.789 697.577 734.423 706.419C740.371 715.038 752.648 714.307 761.553 715.07C766.229 706.133 774.212 696.146 785.694 699.772C797.812 699.517 807.576 708.868 820.489 705.433C832.289 703.62 843.835 706.864 848.224 718.855C855.952 720.891 869.438 724.834 874.559 716.247C880.666 721.495 881.015 708.836 887.695 712.271C889.667 708.9 892.974 706.451 891.766 701.934C894.278 692.806 883.433 705.687 886.104 695.796C899.176 696.623 894.628 681.006 900.703 674.2C909.704 667.966 914.062 656.325 925.353 654.035C929.901 644.493 923.444 633.457 917.21 626.109C912.344 618.063 903.756 611.415 901.785 602.255C896.473 591.568 877.93 607.376 871.474 596.18C867.943 586.225 858.561 583.204 849.814 588.547C840.622 584.508 832.448 577.447 821.475 580.277C812.347 578.592 805.127 557.409 795.935 569.845C786.489 573.598 784.326 556.455 782.513 549.871C777.392 537.117 764.066 554.133 757.959 546.691C756.178 543.319 754.174 542.047 752.011 542.015Z" fill="black" stroke="white" stroke-width="0.90961"/>
<path id="Argentina" fill-rule="evenodd" clip-rule="evenodd" d="M688.403 686.922C684.427 686.922 680.515 688.321 677.652 691.502C671.641 698.595 675.49 708.772 669.128 716.056C668.111 717.646 667.188 719.3 666.33 721.018C667.411 721.622 668.492 722.099 669.828 722.417C678.129 730.814 662.258 736.348 666.934 745.285C672.532 749.547 672.373 756.449 671.991 762.874C670.814 769.617 665.757 774.897 664.453 781.767C663.594 788.096 658.951 793.089 659.078 799.546C659.237 805.716 656.661 811.664 657.901 817.834C659.523 825.022 654.848 830.429 654.212 836.822C653.607 844.074 654.021 851.612 652.908 858.8C647.882 867.07 643.143 876.484 643.175 886.407C648.2 893.055 659.078 907.018 663.244 892.769C672.277 889.779 675.553 878.265 685.604 876.484C696.99 874.448 690.057 859.086 699.026 856.192C706.532 864.239 714.674 854.856 720.399 849.64C719.668 840.035 733.44 839.876 730.45 829.666C729.75 827.344 726.633 812.396 730.036 818.343C734.426 829.284 747.021 831.67 754.304 822.223C766.104 818.916 762.542 806.734 754.113 801.741C746.862 796.97 744.572 788.382 745.24 780.176C745.271 777.473 745.907 774.992 746.957 772.797C746.448 768.599 747.275 763.987 744.349 761.093C738.688 762.397 734.775 754.382 740.596 751.933C744.731 746.971 739.578 739.115 744.667 734.63C749.279 732.627 755.29 734.758 759.552 730.782C762.478 726.043 761.747 720.032 760.347 714.975C753 714.434 743.745 714.593 737.606 709.79C731.531 711.667 724.788 711.794 719.318 709.409C713.307 704.351 708.409 698.149 702.016 693.506C698.803 689.371 693.523 686.954 688.403 686.922Z" stroke="white" stroke-width="0.90961"/>
<path id="Chile" fill-rule="evenodd" clip-rule="evenodd" d="M629.783 715.388C622.786 705.941 621.8 712.016 625.044 705.433C628.32 698.849 636.685 697.131 643.523 697.545C649.503 700.248 658.058 701.266 660.762 707.913C659.203 714.942 662.893 720.826 669.858 722.449C678.191 730.845 662.257 736.348 666.932 745.285C672.53 749.547 672.403 756.417 672.021 762.874C670.844 769.617 665.724 774.864 664.388 781.703C663.561 788.064 658.949 793.121 659.044 799.577C659.235 805.748 656.691 811.632 657.931 817.834C659.553 824.99 654.814 830.461 654.178 836.854C653.574 844.105 653.987 851.612 652.906 858.8C647.626 867.451 644.032 876.993 644.477 887.393C642.982 891.337 653.637 895.504 651.347 894.549C645.145 896.267 633.345 896.426 633.982 887.584C631.564 884.69 632.01 879.951 629.179 876.007C626.253 871.999 620.082 868.819 619.637 864.747C618.492 855.333 625.966 854.601 626.793 847.763C632.296 812.872 614.834 835.391 618.142 810.328C630.069 802.122 626.825 795.888 623.009 781.321C628.702 768.758 625.267 763.669 623.963 750.342C621.641 739.624 636.78 724.834 629.783 715.388Z" fill="black" stroke="white" stroke-width="0.90961"/>
<path id="Uruguay" fill-rule="evenodd" clip-rule="evenodd" d="M779.65 699.071C771.349 699.866 765.37 707.818 761.553 715.069C761.171 715.038 760.726 715.006 760.344 714.974C761.744 720.031 762.475 726.042 759.549 730.781C755.287 734.757 749.276 732.626 744.664 734.63C739.575 739.115 744.728 746.971 740.593 751.932C734.772 754.381 738.685 762.396 744.346 761.092C748.64 765.354 744.823 773.306 749.021 778.267C753.029 783.134 757.386 787.873 760.662 793.28C764.765 797.287 770.776 794.902 774.466 791.594C778.537 788.382 782.004 784.374 786.489 781.766C792.659 779.89 797.239 774.292 803.505 773.306C810.279 775.055 815.114 767.994 822.079 770.03C827.804 770.857 833.466 768.471 836.201 763.255C838.332 758.198 838.141 751.9 844.057 749.451C847.969 745.476 847.778 739.942 847.937 734.757C847.715 728.428 843.898 722.862 845.043 716.342C844.852 715.165 844.852 713.956 844.852 712.779C839.286 705.782 829.967 703.969 820.489 705.432C807.576 708.867 797.811 699.516 785.693 699.771C783.531 699.071 781.559 698.88 779.65 699.071Z" fill="black" stroke="white" stroke-width="0.90961"/>
<path id="Islandia" fill-rule="evenodd" clip-rule="evenodd" d="M848.097 305.508C839.191 305.635 850.324 294.058 855.063 299.719C861.137 303.408 868.675 301.246 870.806 294.153C872.874 289.223 878.694 278.791 881.938 288.81C883.274 297.811 891.989 295.425 898.064 294.725C901.499 293.262 906.302 286.361 907.224 294.28C905.57 303.695 923.19 294.566 919.087 304.363C919.056 308.593 927.071 309.292 921.123 313.268C917.243 316.449 910.627 323.064 918.96 325.672C925.099 325.323 931.46 328.09 929.901 335.31C928.184 341.639 923 351.181 929.838 356.238C936.644 358.496 944.119 362.154 941.797 370.837C943.196 378.979 937.344 385.722 931.396 390.333C923.636 391.765 918.865 398.794 911.359 400.48C905.952 402.579 894.883 397.681 895.042 406.872C898.986 411.612 902.294 420.676 896.664 424.906C889.604 423.348 888.713 411.357 881.111 412.884C873.923 414.251 877.994 428.755 868.898 423.348C862.982 418.641 855.89 415.651 849.115 412.279C840.432 410.626 843.74 401.688 843.581 395.55C844.471 385.276 832.321 385.245 826.66 380.028C822.048 375.862 819.281 375.035 817.913 368.451C813.111 363.203 813.811 348.922 823.479 351.371C830.413 353.121 831.781 345.169 832.481 339.158C833.626 332.797 829.65 324.877 835.248 319.884C839.16 315.304 843.676 311.201 850.228 312.06C851.596 310.056 849.465 307.002 848.097 305.508Z" fill="black" stroke="white" stroke-width="0.90961"/>
<path id="Gran Bretaña" fill-rule="evenodd" clip-rule="evenodd" d="M1030.41 431.045C1033.88 435.307 1040.24 437.247 1045.45 439.823C1050.83 443.322 1057.09 441.954 1055.22 434.575C1060.97 437.438 1066.51 440.269 1070.45 445.803C1077.51 449.651 1078.12 439.823 1079.68 435.339C1081.58 431.586 1084.29 422.235 1089.19 428.882C1093.32 434.893 1103.37 433.653 1105.06 426.465C1106.61 422.871 1109.25 420.835 1112.09 419.977C1112.34 414.697 1112.56 409.353 1112.94 404.074C1115.49 398.38 1122.52 400.257 1126.21 397.967C1129.9 391.224 1126.14 384.036 1124.27 377.421C1121.69 370.105 1114.31 366.861 1108.55 362.631C1104.9 361.327 1096.18 362.09 1101.05 355.284C1105.63 349.781 1113.77 349.718 1118.67 344.788C1116.06 339.667 1107.31 342.561 1102.29 341.353C1101.97 333.401 1114.57 336.773 1114.28 329.267C1115.36 320.806 1105.02 322.874 1101.08 318.866C1101.14 314.064 1107.66 304.426 1098.09 305.508C1089.95 307.162 1087.91 316.894 1081.01 320.615C1073.66 322.556 1076.88 328.79 1079.55 333.306C1081.42 339.89 1075.22 346.283 1068.73 342.72C1061.04 338.427 1058.91 347.491 1059.57 353.28C1058.91 357.192 1069.21 361.677 1061.29 362.917C1056.01 361.931 1046.66 356.81 1043.96 364.03C1040.05 369.883 1054.17 376.912 1043.83 377.611C1038.42 379.615 1040.84 387.63 1034.99 390.111C1029.71 395.2 1025.45 401.529 1019.34 405.759C1016.7 408.813 1006.65 402.356 1009.93 409.672C1014.28 414.411 1008.78 418.863 1005 420.549C1003.09 427.705 1010.94 432.285 1017.21 430.727C1021.44 430.377 1023.44 422.076 1027.35 428.596C1028.18 429.614 1029.07 430.727 1030.41 431.045Z" fill="black" stroke="white" stroke-width="0.90961"/>
<path id="Francia" fill-rule="evenodd" clip-rule="evenodd" d="M1186.54 401.591C1185.56 401.719 1184.54 402.164 1183.36 402.864C1172.39 401.941 1171.21 415.745 1162.59 418.162C1157.89 413.455 1152.32 418.321 1147.01 419.975C1140.84 424.714 1141.16 426.591 1128.24 427.831C1121.47 432.379 1116.28 445.801 1112.4 453.053C1107.73 459.541 1107.28 470.228 1116.38 472.836C1126.37 474.808 1119.59 484.127 1114.19 487.244C1109.86 493.86 1101.18 492.906 1095.42 498.09C1090.01 500.762 1085.08 504.292 1080.69 508.427C1083.62 508.459 1086.01 509.54 1086.58 513.198C1086.13 519.336 1087.6 525.379 1092.53 529.387C1094.12 534.762 1092.27 541.155 1094.91 546.085C1099.84 550.156 1104.71 554.227 1110.34 557.312C1113.36 559.062 1116.67 561.701 1116.95 568.921C1120.17 566.154 1122.65 557.439 1127.13 556.644C1133.65 551.206 1136.35 541.473 1144.02 537.656C1150.25 540.169 1156.74 544.017 1164.41 542.427C1172.49 544.145 1178.37 538.515 1184.57 534.476C1188.74 526.143 1198.85 528.496 1205.15 523.248C1211.19 516.792 1213.64 507.504 1220.96 502.066C1227 493.574 1214.12 482.251 1223.82 475.73C1227.6 469.56 1228.4 458.428 1223.44 453.148C1215.96 448.855 1219.21 438.009 1210.53 434.669C1202.26 434.319 1194.88 427.068 1195.61 418.48C1196.21 412.405 1193.48 400.605 1186.54 401.591Z" fill="black" stroke="white" stroke-width="0.90961"/>
<path id="España" fill-rule="evenodd" clip-rule="evenodd" d="M1025.83 511.608C1030.18 508.618 1036.35 505.438 1041.98 502.13C1048.54 501.112 1048.47 506.074 1054.93 507.028C1060.5 511.29 1064.73 510.59 1070.51 509.732C1076.43 509.318 1085.37 505.47 1086.58 513.167C1086.13 519.273 1087.59 525.38 1092.52 529.419C1094.11 534.795 1092.21 541.188 1094.88 546.117C1099.78 550.189 1104.74 554.26 1110.33 557.345C1116.19 560.684 1118.64 565.837 1116.73 572.421C1115.26 580.277 1113.29 587.465 1105.21 591.091C1099.49 596.307 1093.13 593.953 1088.48 599.646C1087.98 606.103 1092.11 611.892 1085.56 617.394C1080.63 621.37 1076.3 626.618 1070.42 629.067C1063.42 629.067 1056.49 630.244 1049.49 630.307C1044.97 624.614 1038.14 624.391 1031.2 625.536C1023.57 628.303 1015.36 631.611 1007.13 629.099C1001.75 625.823 992.335 633.806 990.173 627.031C987.342 619.684 996.756 615.517 993.703 608.393C989.473 603.081 986.642 596.911 982.953 591.091C977.927 584.348 976.655 580.372 980.09 573.089C983.811 570.544 986.292 577.382 989.314 569.622C992.145 563.038 989.028 555.468 989.155 548.439C987.024 540.265 987.215 538.166 984.416 530.278C984.161 524.171 988.137 520.323 993.162 517.747C998.697 516.252 1003.98 514.471 1010.62 516.156C1017.21 517.301 1014.85 516.252 1025.83 511.608Z" fill="black" stroke="white" stroke-width="0.90961"/>
<path id="Alemania" fill-rule="evenodd" clip-rule="evenodd" d="M1237.65 363.011C1236.67 362.947 1226.36 359.449 1229.48 366.001C1229.77 367.75 1229.1 371.09 1226.62 372.489C1222.26 374.97 1218.92 375.67 1217.68 382.285C1216.57 388.933 1219.4 400.955 1208.93 400.097C1202.51 398.792 1196.91 400.701 1191.82 403.85C1194.84 407.444 1196.02 414.314 1195.61 418.48C1194.87 427.068 1202.25 434.32 1210.52 434.669C1219.21 438.009 1215.96 448.855 1223.44 453.148C1228.4 458.428 1227.6 469.56 1223.82 475.731C1216.34 480.724 1222.26 488.58 1222.64 495.8C1228.3 497.072 1233.52 500.03 1237.94 503.942C1243.63 509.476 1250.5 514.025 1258.8 512.403C1265.52 511.735 1272.58 514.184 1278.91 511.099C1285.39 511.321 1297 502.924 1297.29 514.597C1300.5 521.531 1310.2 519.559 1312.97 527.797C1316.12 530.023 1317.93 534.667 1317.74 538.642C1322.67 537.72 1327.22 535.462 1330.69 531.581C1335.36 522.358 1341.79 512.657 1342.61 501.97C1345.28 492.778 1337.27 486.608 1334.25 478.911C1326.52 473.727 1315.23 471.373 1313.19 460.718C1311.67 452.799 1300.91 448.727 1302.54 439.631C1303.4 432.316 1303.24 424.841 1305.02 417.685C1306.13 409.956 1306.93 401.591 1304.03 394.212C1296.11 392.272 1287.84 389.346 1281.96 382.794C1276.11 374.334 1266.18 375.511 1257.72 371.853C1250.34 372.235 1244.05 363.011 1237.65 363.011Z" fill="black" stroke="white" stroke-width="0.90961"/>
<path id="Polonia" fill-rule="evenodd" clip-rule="evenodd" d="M1269.65 353.28C1264.75 353.311 1260.04 354.234 1255.94 357.637C1251.81 359.895 1246.3 362.503 1238.29 363.267C1247.42 365.302 1252.38 372.109 1257.72 371.854C1266.18 375.512 1276.11 374.335 1281.96 382.795C1287.84 389.347 1296.11 392.273 1304.03 394.214C1306.92 401.592 1306.13 409.957 1305.02 417.686C1303.24 424.842 1303.39 432.317 1302.54 439.632C1300.91 448.729 1311.66 452.8 1313.19 460.719C1315.23 471.374 1326.52 473.728 1334.25 478.912C1337.27 486.609 1345.28 492.78 1342.61 501.971C1342.2 507.251 1340.48 512.308 1338.22 517.175C1348.49 518.797 1357.24 513.58 1364.18 506.233C1371.78 502.862 1372.41 492.334 1381.06 490.235C1389.3 485.846 1392.23 480.852 1398.4 472.678C1402.63 460.083 1411.5 466.094 1415.95 459.829C1422.82 452.036 1417 440.205 1413.38 432.794C1407.62 424.811 1399.96 418.259 1393.98 410.339C1388.28 401.656 1385.04 390.206 1373.81 386.676C1365.19 384.99 1356.83 381.046 1347.86 382.286C1339.56 384.004 1332.02 381.11 1327.28 373.953C1322.57 364.189 1310.9 360.595 1301.84 366.892C1291.02 370.073 1288.57 354.52 1278.59 353.884C1275.6 353.566 1272.61 353.248 1269.65 353.28Z" fill="black" stroke="white" stroke-width="0.90961"/>
<path id="Rusia" fill-rule="evenodd" clip-rule="evenodd" d="M1326.39 160.537C1324.45 161.141 1318.44 162.636 1315.26 161.173C1312.08 159.71 1311.79 155.321 1309.06 156.275C1303.39 158.311 1300.41 162.191 1296.52 162.986C1291.4 164.036 1291.05 168.647 1289.3 168.997C1285.74 169.093 1279.64 166.994 1276.93 169.22C1274.74 171.001 1277.35 176.535 1275.5 178.348C1270.06 183.692 1265.39 187.604 1256.51 184.709C1245.41 187.89 1234.09 203.252 1240.61 214.32C1250.37 223.226 1252.31 236.648 1245.51 247.716C1243.98 250.547 1242.36 253.505 1242.52 256.877C1238.77 271.316 1255.18 279.331 1255.94 293.453C1260.08 306.08 1268.31 319.089 1261.28 332.606C1255.88 339.476 1257.94 344.978 1264.08 353.884C1265.9 353.502 1267.74 353.28 1269.65 353.28C1272.61 353.248 1275.6 353.566 1278.59 353.884C1288.57 354.52 1291.02 370.073 1301.84 366.893C1310.9 360.595 1322.57 364.189 1327.28 373.953C1332.02 381.11 1339.56 384.004 1347.86 382.287C1356.83 381.046 1365.19 384.99 1373.81 386.676C1385.04 390.206 1388.28 401.656 1393.98 410.339C1399.96 418.259 1407.62 424.811 1413.38 432.794C1416.85 439.887 1422.28 451.051 1416.66 458.843C1416.88 458.811 1417.1 458.843 1417.35 458.843C1430.3 458.429 1443.24 449.619 1452.63 441.127C1455.01 427.164 1469.99 421.726 1483.83 423.634C1487.39 422.553 1507.11 425.829 1500.62 422.139C1489.36 412.661 1488.54 400.098 1476.35 391.192C1472.03 390.174 1466.08 384.131 1463.19 379.965C1460.61 376.307 1460.8 370.582 1458.35 367.401C1455.9 364.189 1449.48 363.617 1449.38 362.344C1449.1 359.132 1450.85 354.584 1448.72 352.548C1446.33 350.862 1441.85 353.375 1438.57 352.071C1436.25 351.149 1436.53 346.855 1436.18 345.265C1434.15 336.55 1441.81 326.817 1437.62 318.484C1426.93 314.318 1431.6 310.151 1432.08 296.57C1432.08 292.022 1428.45 292.849 1425.59 293.262C1422.13 293.803 1418.98 296.825 1419.42 290.654C1419.61 288.46 1424.99 287.442 1425.62 286.201C1426.9 283.721 1423.72 281.717 1423.72 278.218C1428.74 260.216 1408.29 265.051 1399.45 256.368C1387.62 253.378 1371.01 247.43 1380.17 231.718C1382.65 217.756 1370.63 213.207 1363.19 208.659C1359.09 206.146 1353.17 199.817 1346.05 200.326C1337.46 200.93 1333.83 200.04 1332.47 194.251C1331.61 190.116 1338.19 184.678 1339.59 178.73C1341.63 169.983 1337.81 160.982 1326.39 160.537Z" fill="black" stroke="white" stroke-width="0.90961"/>
<path id="Suecia" fill-rule="evenodd" clip-rule="evenodd" d="M1241.98 175.008C1241.12 175.04 1240.33 175.167 1239.59 175.294C1233.52 177.457 1227.1 177.425 1220.89 178.475C1214.82 182.705 1211.67 190.943 1203.91 192.883C1194.46 198.385 1198.79 182.578 1190.39 183.246C1182.31 178.888 1173.41 183.373 1168.41 190.116C1164.22 194.887 1158.14 199.117 1151.52 197.272C1148.69 204.078 1140.33 204.714 1134.41 201.025C1129.55 204.269 1137.66 217.755 1128.05 216.642C1118.83 216.61 1121.91 229.046 1127.35 232.449C1132.92 237.951 1126.18 248.002 1133.62 252.328C1140.52 255.985 1140.68 264.605 1139.5 271.316C1132.03 276.85 1140.14 282.416 1144.05 286.9C1149.43 291.671 1154.42 287.25 1156.77 282.225C1163.55 278.377 1166.31 294.756 1172.8 287.6C1179.9 279.14 1178.65 298.287 1185.72 292.276C1193.03 290.431 1196.63 282.32 1204.19 281.048C1212.94 280.444 1217.65 272.206 1222.99 266.736C1231.71 267.594 1228.62 250.642 1237.88 255.604C1239.34 256.24 1240.8 257.099 1242.36 257.894C1242.43 257.544 1242.49 257.226 1242.55 256.908C1242.43 253.536 1244.02 250.578 1245.54 247.748C1252.38 236.679 1250.44 223.257 1240.68 214.352C1234.22 203.474 1245.13 188.43 1256.07 184.931C1255.94 184.2 1255.85 183.5 1255.78 182.737C1255.02 176.057 1247.8 174.626 1241.98 175.008Z" fill="black" stroke="white" stroke-width="0.90961"/>
<path id="Italia" fill-rule="evenodd" clip-rule="evenodd" d="M1222.64 495.801C1222.74 497.995 1222.35 500.095 1220.95 502.067C1213.64 507.505 1211.19 516.793 1205.15 523.249C1204.7 523.599 1204.23 523.917 1203.75 524.235C1206.93 527.066 1209.5 530.628 1211.51 534.477C1217.36 543.35 1221.69 553.115 1227.51 561.989C1231.42 566.505 1237.88 577.669 1229.19 580.277C1219.94 582.058 1228.75 588.355 1232.47 590.709C1238.07 599.201 1241.02 609.252 1247.1 617.458C1250.73 623.723 1254.7 629.894 1260.62 634.251C1269.2 634.633 1274.93 639.404 1280.69 645.097C1287.52 654.162 1296.02 644.047 1301.84 639.531C1312.05 639.594 1320.16 632.724 1330.08 632.184C1338.25 631.548 1345.22 633.392 1349.32 624.359C1354.92 615.199 1344.3 614.532 1338.64 612.973C1331.26 609.888 1324.64 604.417 1316.15 604.831C1308.8 603.877 1301.93 596.498 1300.37 589.246C1303.08 580.658 1293.06 578.718 1292.42 571.53C1294.65 563.77 1288.51 559.253 1284.25 554.641C1289.5 552.956 1285.2 544.336 1291.31 545.1C1297.86 546.372 1304.48 539.502 1310.2 545.513C1320.09 547.008 1319.43 532.377 1312.97 527.797C1310.2 519.56 1300.5 521.532 1297.29 514.598C1297 502.925 1285.39 511.322 1278.9 511.099C1272.58 514.184 1265.51 511.735 1258.8 512.403C1250.5 514.025 1243.63 509.477 1237.94 503.943C1233.52 500.031 1228.3 497.073 1222.64 495.801Z" fill="black" stroke="white" stroke-width="0.90961"/>
<path id="Sahara" fill-rule="evenodd" clip-rule="evenodd" d="M1202.09 815.163C1216.09 818.694 1201.17 797.066 1214.75 798.147C1219.91 794.235 1215.64 782.944 1225.79 786.602C1234.7 783.198 1240.36 776.964 1245.32 769.331C1252.25 762.016 1260.17 755.623 1268.41 750.884C1271.4 743.314 1281 739.783 1280.69 730.623C1284.25 722.322 1293.28 717.71 1296.91 709.314C1301.14 705.465 1317.3 709.345 1314.43 700.79C1307.37 696.273 1298.56 695.574 1290.45 695.001C1281.77 691.63 1283.84 681.197 1280.34 674.932C1275.69 668.125 1261.29 672.101 1262.94 662.241C1257.69 653.335 1246.94 660.714 1239.4 660.619C1233.87 658.234 1226.36 642.585 1221.75 655.212C1218.86 661.7 1211.1 665.517 1208.52 656.357C1204.83 650.346 1195.07 640.422 1188.67 648.406C1182.6 655.88 1175.44 653.685 1169.46 648.628C1164.85 653.972 1149.17 662.464 1161.29 668.348C1156.36 675.504 1150.16 657.693 1145.1 662.209C1137.72 667.425 1137.4 676.776 1138.17 684.919C1139.22 690.93 1142.49 700.503 1132.63 698.309C1130.4 703.366 1125.89 704.893 1121.5 705.656C1123.95 711.953 1125.92 722.736 1117.01 725.853C1106.04 730.56 1119.3 740.102 1124.17 744.077C1126.52 753.396 1132.73 760.68 1140.71 765.61C1149.01 764.624 1155.02 766.023 1152.06 776.01C1153.56 781.067 1162.4 778.141 1161.77 785.87C1162.78 794.394 1172.26 799.515 1179.61 802.632C1186.8 807.307 1191.28 817.612 1202.09 815.163Z" fill="black" stroke="white" stroke-width="0.90961"/>
<path id="Egipto" fill-rule="evenodd" clip-rule="evenodd" d="M1433.96 637.623C1432.31 637.655 1430.53 638.863 1428.49 641.821C1420.28 643.252 1410.84 640.008 1403.05 642.903C1404.16 658.106 1387.94 661.922 1376.01 659.41C1365.86 654.925 1369.55 663.29 1360.58 664.562C1350.47 664.785 1341.82 661.223 1331.58 663.863C1324.36 672.387 1316.63 662.908 1308.11 665.357C1303.05 674.39 1293.19 677.189 1283.96 673.023C1282.85 673.691 1281.61 674.263 1280.28 674.804C1280.31 674.836 1280.37 674.867 1280.37 674.899C1283.9 681.165 1281.77 691.629 1290.42 695C1298.56 695.573 1307.44 696.241 1314.47 700.757C1314.5 700.789 1314.47 700.821 1314.47 700.853C1322.74 699.485 1331.99 700.121 1337.75 706.609C1347.26 712.557 1359.41 708.263 1370.03 709.695C1378.71 714.974 1388.64 715.388 1398.27 718.06C1407.91 719.459 1413.64 727.569 1420.54 733.358C1429.16 737.875 1438.8 740.896 1446.56 747.066C1457.37 750.247 1464.34 760.584 1476.58 758.389C1489.11 755.495 1489.49 740.673 1501.13 736.92C1510.14 733.708 1508.39 723.085 1513.57 715.96C1521.08 711.158 1528.55 692.17 1516.53 694.587C1513.82 706.991 1508.86 691.406 1502.22 693.601C1495.57 702.825 1485.87 700.694 1479.67 691.025C1471.75 686.476 1481.61 677.189 1474.7 676.012C1467.9 667.902 1470.6 661.954 1463.25 659.505C1455.81 656.993 1441.09 665.866 1440.61 653.844C1441.59 648.119 1438.83 637.559 1433.96 637.623Z" fill="black" stroke="white" stroke-width="0.90961"/>
<path id="Etiopía" fill-rule="evenodd" clip-rule="evenodd" d="M1302.95 696.367C1304.95 696.781 1306.9 697.353 1308.8 698.053C1306.9 697.385 1304.95 696.781 1302.95 696.367ZM1320.73 700.247C1318.63 700.279 1316.53 700.502 1314.46 700.852C1317.17 709.28 1301.11 705.495 1296.88 709.312C1293.28 717.677 1284.22 722.257 1280.69 730.558C1280.94 738.796 1273.18 742.486 1269.46 748.656C1275.73 749.006 1281.99 748.91 1288.13 747.67C1289.37 747.606 1290.61 747.543 1291.82 747.574C1300.25 747.765 1307.98 750.532 1312.87 758.007C1316.15 763.954 1319.14 770.729 1325.82 773.719C1332.72 778.331 1340.39 783.07 1348.97 783.26C1355.18 784.819 1361.66 786.854 1367.64 788.413C1369.68 791.339 1370.41 794.774 1370.54 798.241H1374.99H1384.06C1387.14 798.241 1389.08 799.195 1391.69 799.831C1394.3 800.499 1397.35 802.439 1400.05 802.439H1410.39C1413.32 802.439 1414.68 800.531 1417.26 800.531H1427.88C1430.97 800.531 1433.51 800.944 1436.63 800.944H1448.84C1452.15 800.944 1450.56 799.227 1452.25 797.573C1454.19 795.601 1455.87 795.633 1457.21 798.241C1458.35 800.595 1459.09 801.453 1461.79 802.121C1464.87 802.916 1464.72 801.072 1466.75 799.036C1468.4 797.382 1469.74 794.456 1469.74 791.784C1469.74 789.304 1471.33 787.459 1471.33 785.741C1471.33 782.847 1473.21 781.225 1473.21 778.076C1473.21 775.436 1473.43 772.256 1472.79 769.743C1472.25 767.517 1473.05 764.59 1471.33 762.873C1469.61 761.187 1468.28 759.756 1467.55 757.816C1460.23 755.494 1454.44 749.387 1446.55 747.066C1438.79 740.895 1429.16 737.874 1420.54 733.357C1413.64 727.569 1407.91 719.458 1398.27 718.059C1388.64 715.387 1378.71 714.974 1370.03 709.694C1359.41 708.263 1347.26 712.556 1337.75 706.609C1333.42 701.742 1327.09 700.152 1320.73 700.247ZM1260.2 756.226C1258.77 757.275 1257.34 758.357 1255.94 759.502C1257.31 758.357 1258.77 757.275 1260.2 756.226Z" fill="black" stroke="white" stroke-width="0.90961"/>
<path id="Zaire" fill-rule="evenodd" clip-rule="evenodd" d="M1291.82 747.575C1290.61 747.543 1289.37 747.607 1288.13 747.67C1281.99 748.911 1275.73 749.006 1269.46 748.656C1269.05 749.356 1268.67 750.088 1268.35 750.851C1260.14 755.59 1252.25 762.046 1245.29 769.33C1240.36 776.995 1234.73 783.229 1225.82 786.632C1215.68 782.975 1219.91 794.234 1214.79 798.146C1203.75 797.287 1211.54 811.345 1207.34 814.749C1208.01 815.576 1208.78 816.307 1209.6 817.039C1216.31 820.537 1224.84 816.943 1232.18 818.82C1238.99 819.678 1245.89 821.205 1250.47 826.867C1254.16 829.856 1267.52 839.907 1266.06 829.061C1265.39 821.809 1273.5 820.442 1275.41 827.28C1281.17 832.019 1280.53 840.034 1284.86 845.664C1288.77 850.721 1295.83 851.866 1300.66 855.905C1305.27 860.771 1309.5 868.246 1317.46 866.433C1326.55 865.86 1328.33 856.414 1327.98 848.94C1328.68 843.31 1333.33 838.094 1338.03 835.613C1344.97 838.507 1349.58 834.245 1354.03 829.379C1358.87 822.032 1365.48 815.957 1369.94 808.387C1370.44 801.804 1371.65 794.202 1367.65 788.413C1361.67 786.855 1355.18 784.819 1348.98 783.261C1340.39 783.07 1332.72 778.331 1325.82 773.719C1319.14 770.729 1316.15 763.955 1312.88 758.007C1307.98 750.533 1300.25 747.766 1291.82 747.575Z" fill="black" stroke="white" stroke-width="0.90961"/>
<path id="Sudáfrica" fill-rule="evenodd" clip-rule="evenodd" d="M1370.13 795.188C1370.83 799.513 1370.25 804.157 1369.93 808.387C1365.48 815.957 1358.87 822.032 1354.03 829.379C1349.58 834.245 1344.97 838.507 1338.03 835.613C1333.33 838.093 1328.68 843.31 1327.98 848.939C1328.21 853.805 1327.6 859.499 1324.61 863.061C1325.79 864.937 1326.9 866.814 1327.98 868.722C1331.48 873.907 1333.49 878.932 1333.45 885.325C1336.38 892.259 1343.09 896.425 1348.56 901.228C1354.92 907.43 1362.94 907.748 1371.14 906.189C1377.63 908.448 1383.17 913.155 1386.35 919.325C1392.93 922.41 1400.37 924.987 1404.73 931.443C1412.24 938.918 1417.32 929.121 1419.93 922.792C1419.01 913.791 1429.38 915.477 1434.34 910.96C1437.33 905.204 1431.83 896.171 1437.81 891.781C1446.2 887.997 1441.15 875.433 1435.52 872.571C1430.08 866.878 1431.54 860.039 1432.05 852.629C1432.59 845.027 1429.41 836.058 1434.28 829.506C1437.59 822.477 1441.4 819.36 1445.09 812.553C1447.32 808.832 1449.83 804.952 1450.53 800.626C1439.59 801.708 1428.62 799.958 1417.64 800.626C1408.8 802.916 1398.78 803.998 1390.51 799.163C1384.15 796.746 1373.66 801.072 1370.13 795.188Z" fill="black" stroke="white" stroke-width="0.90961"/>
<path id="Madagascar" fill-rule="evenodd" clip-rule="evenodd" d="M1502.5 822.669C1496.68 817.58 1496.14 810.328 1496.77 803.045C1497.06 795.825 1496.2 788.478 1497.25 781.321C1500.37 775.342 1508.13 779.922 1512.64 781.608C1519.04 780.749 1517.7 773.338 1521.52 768.726C1523.33 762.429 1526.26 756.354 1531.82 752.983C1535.55 747.321 1545.82 751.074 1549.79 753.81C1555.26 750.438 1558.95 740.96 1566.68 745.222C1571.45 750.215 1579.47 745.476 1583.67 750.756C1586.97 756.799 1578.67 762.397 1574.6 765.959C1570.63 769.903 1567.99 776.264 1567.99 782.053C1567.16 788.382 1566.4 794.775 1567.83 801.168C1572.44 807.911 1564.77 814.463 1558.1 813.795C1551.77 815.894 1556.03 825.818 1562.01 826.231C1566.43 831.638 1560.1 837.586 1559.62 843.215C1559.49 848.272 1561.75 858.928 1553.13 854.634C1547.5 851.739 1541.33 858.037 1543.24 863.762C1542 869.36 1537.07 874.321 1540.89 880.396C1542.19 884.245 1544.42 891.878 1537.39 890.479C1530.39 889.906 1524.57 896.522 1524.95 903.36C1519.8 905.745 1510.16 902.978 1509.72 895.377C1506.28 889.652 1498.4 888.57 1494.71 883.195C1493.66 876.452 1492.58 868.946 1495.22 862.426C1497.63 856.828 1499.06 850.785 1502.31 845.601C1503.45 838.89 1505.17 831.893 1502.72 825.245C1502.59 824.386 1502.59 823.528 1502.5 822.669Z" fill="black" stroke="white" stroke-width="0.90961"/>
<path id="Aral" fill-rule="evenodd" clip-rule="evenodd" d="M1394.42 138.877C1392.2 138.782 1386.66 141.04 1382.88 142.884C1375.94 146.288 1386.19 152.999 1383.55 154.494C1379.28 156.911 1375.31 151.122 1374.99 155.67C1375.66 165.117 1379.16 168.647 1372.83 176.662C1367.48 183.818 1358.48 187.444 1353.23 195.046C1351.64 196.827 1350.79 198.831 1350.25 200.898C1355.49 202.393 1359.91 206.655 1363.19 208.659C1370.6 213.207 1382.66 217.755 1380.17 231.718C1371.01 247.43 1387.62 253.378 1399.45 256.367C1407.78 264.541 1426.45 260.82 1424.42 275.355C1425.47 274.878 1426.52 274.433 1427.6 273.956C1432.37 273.097 1434.18 274.91 1436.92 274.846C1441.46 274.783 1444.04 272.079 1447.06 269.376C1449.26 267.436 1451.74 265.432 1452.34 259.262C1450.78 247.589 1443.28 245.585 1443.6 235.089C1443.25 225.134 1446.08 214.511 1444.58 204.397C1443.31 198.958 1438.67 197.845 1437.42 195.841C1433.58 189.702 1435.26 185.059 1435.64 177.648C1433.61 166.675 1419.42 171.033 1411.47 168.393C1399.67 167.534 1396.43 156.561 1397.76 146.542C1396.94 144.379 1401.17 139.163 1394.42 138.877Z" fill="black" stroke="white" stroke-width="0.90961"/>
<path id="Taymir" fill-rule="evenodd" clip-rule="evenodd" d="M1514.94 120.589C1510.71 120.557 1505.84 121.734 1503.42 125.359C1502.05 127.681 1499.95 128.731 1497.66 129.144C1497.7 129.971 1497.51 130.862 1497.06 132.039C1496.07 138.622 1488.89 142.344 1486.91 148.609C1485.36 154.493 1496.62 157.356 1489.9 162.827C1485.8 165.435 1482.88 169.315 1486.44 173.863C1486.95 178.411 1496.23 180.638 1489.71 184.9C1486.18 187.826 1480.71 187.985 1482.33 194.346C1482.49 198.99 1482.68 203.697 1482.65 208.372C1489.68 208.881 1496.65 210.281 1503.71 210.44C1509.11 210.09 1515.09 212.634 1520.02 209.549C1525.24 207.386 1528.52 202.52 1533.73 200.294C1538.19 196.795 1543.94 198.258 1548.94 196.827C1553.77 194.092 1557.56 189.702 1560.07 184.804C1561.75 179.811 1567.22 178.475 1570.31 174.849C1571.49 171.001 1570.91 166.739 1570.5 162.731C1571.04 157.579 1567.22 155.448 1562.87 154.493C1559.59 151.313 1558.35 146.637 1557.21 142.375C1556.03 138.877 1555.96 131.625 1550.62 133.12C1545.72 133.756 1542.03 137.414 1537.8 139.481C1532.17 139.99 1525.65 137.064 1523.9 131.339C1522.7 127.077 1520.09 123.387 1516.65 120.684C1516.08 120.652 1515.54 120.589 1514.94 120.589Z" fill="black" stroke="white" stroke-width="0.90961"/>
<path id="Kamchatka" fill-rule="evenodd" clip-rule="evenodd" d="M1664.42 129.94C1663.15 129.94 1661.85 130.194 1660.67 130.83C1655.96 134.074 1651.64 142.567 1644.96 139.195C1641.81 134.933 1638.6 130.639 1632.52 132.516C1626.42 133.025 1619.8 133.311 1614.55 136.683C1610.74 141.104 1606.6 145.302 1601.93 148.832C1600.08 150.995 1597.63 152.554 1595.25 154.08C1598.14 160.982 1593.31 167.47 1591.27 174.181C1590.48 182.992 1588.89 193.901 1594.96 201.216C1602.31 205.606 1614.81 200.803 1618.81 210.154C1618.75 212.253 1619.58 213.939 1620.82 215.402C1625.94 214.543 1631.09 214.066 1636.31 214.129C1642.67 213.875 1647.41 209.263 1651.22 204.683C1656.5 201.28 1661.53 196.064 1668.3 196.318C1675.21 196.446 1677.46 190.053 1676.57 184.296C1679.98 180.352 1686.24 180.765 1690.47 177.839C1694.38 174.945 1696.8 164.767 1690.89 162.827C1683.19 162.795 1683.13 155.639 1683.03 150.009C1680.84 144.92 1678.07 139.927 1674.57 135.601C1672.38 132.452 1668.34 129.908 1664.42 129.94Z" fill="black" stroke="white" stroke-width="0.90961"/>
<path id="Tartaria" fill-rule="evenodd" clip-rule="evenodd" d="M1462.17 95.7798C1460.52 95.8752 1463.54 101.219 1462.08 102.109C1457.27 106.021 1453.27 111.142 1449.86 116.326C1447.48 121.383 1442.96 123.705 1437.87 125.932C1432.82 128.126 1430.05 123.006 1420.98 126.504C1412.01 130.003 1408.36 123.96 1404.95 126.122C1402.76 127.522 1405.3 133.947 1403.33 135.41C1402.57 138.495 1400.63 140.181 1398.37 141.453C1398.47 143.17 1397.32 145.333 1397.77 146.542C1396.43 156.561 1399.67 167.534 1411.47 168.392C1419.42 171.032 1433.61 166.675 1435.65 177.648C1435.26 185.059 1433.58 189.702 1437.43 195.841C1438.67 197.844 1443.31 198.958 1444.58 204.396C1445.44 210.28 1444.87 216.355 1444.3 222.367C1450.4 222.653 1456.48 221.89 1462.59 221.285C1468.79 220.045 1477.66 223.098 1482.05 218.009C1483.07 210.153 1482.59 202.234 1482.34 194.346C1480.71 187.985 1486.19 187.826 1489.72 184.899C1496.24 180.638 1486.95 178.411 1486.44 173.863C1482.88 169.315 1485.8 165.434 1489.91 162.826C1496.62 157.356 1485.36 154.493 1486.92 148.609C1488.89 142.343 1496.08 138.622 1497.06 132.038C1499.45 125.741 1494.07 124.914 1489.62 123.769C1488.48 116.772 1480.78 114.704 1478.27 108.47C1476.93 103.381 1467.13 95.4617 1462.17 95.7798Z" fill="black" stroke="white" stroke-width="0.90961"/>
<path id="Siberia" fill-rule="evenodd" clip-rule="evenodd" d="M1561.98 153.507C1566.94 155.797 1569.13 157.229 1570.5 162.731C1570.91 166.739 1571.49 171.001 1570.31 174.849C1567.22 178.475 1561.75 179.811 1560.07 184.804C1557.56 189.702 1553.77 194.092 1548.94 196.827C1543.94 198.258 1538.19 196.795 1533.73 200.294C1528.52 202.52 1525.24 207.386 1520.03 209.549C1515.1 212.634 1509.12 210.09 1503.71 210.44C1496.65 210.281 1489.68 208.881 1482.65 208.372C1482.62 211.585 1482.46 214.797 1482.05 218.009C1477.66 223.098 1468.79 220.045 1462.58 221.285C1456.48 221.89 1450.4 222.653 1444.3 222.367C1443.85 226.661 1443.44 230.954 1443.6 235.089C1443.28 245.585 1450.78 247.589 1452.34 259.261C1452.31 259.548 1452.28 259.77 1452.25 260.057C1463.09 260.184 1473.97 259.834 1484.85 260.057C1501.61 261.074 1514.87 262.792 1533.86 264.764C1544.2 263.905 1555.33 263.746 1563.44 260.629C1571.55 257.512 1575.72 252.837 1581.95 249.02C1592.45 243.39 1599.22 241.514 1607.55 239.542C1616.56 238.492 1623.08 237.156 1630.04 230.223C1635.64 220.808 1618.53 219.504 1618.81 210.153C1614.81 200.803 1602.31 205.605 1594.96 201.216C1588.88 193.901 1590.48 182.991 1591.27 174.181C1592.45 167.406 1598.87 161.268 1595.47 154.08C1589.81 153.921 1586.05 151.281 1580.36 151.313C1576.54 151.345 1570.85 154.048 1567.03 153.985C1565.32 153.666 1563.63 153.571 1561.98 153.507Z" fill="black" stroke="white" stroke-width="0.90961"/>
<path id="Mongolia" fill-rule="evenodd" clip-rule="evenodd" d="M1598.93 241.864C1593.88 243.391 1588.69 245.395 1581.95 249.021C1575.72 252.837 1571.55 257.513 1563.44 260.63C1555.33 263.747 1544.17 263.874 1533.83 264.701C1514.84 262.729 1501.61 261.075 1484.85 260.057C1473.97 259.834 1463.09 260.184 1452.25 260.057C1452.12 260.852 1452.09 263.27 1452.12 266.005C1461.88 269.376 1464.02 277.964 1467.64 286.074C1481.03 289.064 1494.99 295.107 1496.46 311.042C1498.87 320.901 1491.59 341.098 1509.08 337.186C1523.84 332.892 1516.75 355.22 1530.74 354.552C1533.54 357.319 1534.75 361.136 1535.51 365.207C1542.42 358.528 1549.89 354.488 1556.28 351.976C1568.47 350.64 1553.1 339.508 1563.85 337.281C1571.8 334.578 1579.53 330.411 1588.22 330.92C1592.26 329.044 1600.21 331.302 1602.4 322.651C1603.29 319.248 1609.72 322.11 1608.57 319.788C1607.71 308.02 1617.76 309.42 1615.63 300.482C1614.52 293.358 1616.52 285.438 1612.45 279.427C1605.74 272.525 1609.37 259.739 1608.1 251.406C1605.61 246.476 1602.21 243.963 1598.93 241.864Z" fill="black" stroke="white" stroke-width="0.90961"/>
<path id="Gobi" fill-rule="evenodd" clip-rule="evenodd" d="M1615.25 305.857C1613.28 309.642 1607.94 311.105 1608.57 319.788C1609.72 322.11 1603.29 319.248 1602.4 322.651C1600.21 331.302 1592.26 329.044 1588.22 330.92C1579.53 330.411 1571.81 334.578 1563.85 337.281C1553.1 339.508 1568.47 350.64 1556.28 351.976C1549.89 354.488 1542.42 358.528 1535.52 365.207C1537.14 373.922 1536.66 384.163 1544.96 389.761C1557.84 396.472 1553.17 415.269 1565.44 422.457C1575.34 426.465 1579.25 436.452 1583.32 445.612C1583.38 445.516 1583.38 445.421 1583.45 445.326C1587.87 439.219 1593.85 433.08 1602.12 434.48C1608.73 436.643 1609.24 432.031 1610.16 426.91C1614.71 420.644 1618.05 415.015 1618.43 406.936C1622 400.543 1628.07 395.295 1634.11 391.033C1639.01 386.708 1644.2 382 1643.88 374.844C1642.41 366.702 1651.96 363.744 1652.02 355.951C1652.72 347.205 1639.11 346.092 1640.98 336.582C1643.69 328.503 1637.83 321.951 1630.55 320.583C1629.98 314.159 1625.78 310.819 1620.91 307.066C1619.04 306.589 1617.16 306.175 1615.25 305.857Z" fill="black" stroke="white" stroke-width="0.90961"/>
<path id="China" fill-rule="evenodd" clip-rule="evenodd" d="M1645.56 210.439C1638.72 215.528 1629.94 214.002 1621.9 215.019C1626.16 220.108 1634.36 222.939 1630.04 230.223C1623.07 237.156 1616.62 238.524 1607.58 239.573C1604.59 240.273 1601.76 241.005 1598.93 241.863C1602.21 243.963 1605.61 246.475 1608.09 251.405C1609.37 259.738 1605.74 272.524 1612.45 279.426C1616.52 285.437 1614.52 293.357 1615.63 300.481C1617.09 309.546 1628.23 309.673 1630.55 320.583C1637.83 321.95 1643.68 328.502 1640.98 336.581C1639.1 346.091 1652.72 347.204 1652.02 355.951C1651.95 363.743 1642.41 366.701 1643.87 374.843C1644.19 382 1639.01 386.707 1634.11 391.032C1628.07 395.294 1621.99 400.542 1618.43 406.935C1618.05 415.014 1614.71 420.644 1610.16 426.909C1609.24 432.03 1608.73 436.642 1602.11 434.479C1593.84 433.08 1587.86 439.218 1583.44 445.325C1583.57 446.788 1584.59 448.378 1585.22 449.778C1590 460.496 1600.05 466.825 1610.35 471.437C1615.66 473.759 1620.18 468.575 1625.08 466.571C1632.52 465.839 1640.15 469.942 1646.83 469.561C1650.74 469.338 1655.8 466.189 1658.28 465.585C1666.97 463.518 1663.18 467.016 1670.21 471.437C1677.21 475.89 1694.41 470.165 1706.98 466.476C1712.64 464.822 1715.31 460.751 1721.38 457.824C1730.99 453.213 1732.1 449.396 1741.77 450.286C1745.75 449.937 1752.55 446.915 1756.66 445.198C1761.52 443.194 1761.43 446.374 1766.99 444.116C1775.52 440.681 1784.01 430.885 1789.86 426.909C1793.2 422.806 1801.85 415.841 1807.67 416.095C1816.32 416.445 1816.99 411.293 1821.48 406.84C1824.66 403.691 1830.76 401.433 1830.13 395.422C1809.52 380.473 1831.34 382.159 1833.12 371.663C1829.56 363.361 1820.59 358.654 1817.41 347.109C1811.27 343.101 1802.46 349.367 1797.72 348.794C1794.22 348.381 1794.98 340.779 1789.96 340.652C1775.87 345.01 1779.65 336.358 1772.27 331.397C1763.53 326.053 1765.15 341.893 1751.89 335.69C1737.8 340.461 1740.88 325.513 1732.01 320.169C1724.6 322.141 1714.42 316.925 1713.15 312.027C1711.94 307.447 1719.48 303.28 1717.41 298.891C1715.72 295.361 1708.73 299.05 1708.15 293.643C1707.87 285.692 1730.74 286.773 1720.78 279.935C1711.65 279.871 1704.85 281.175 1699.12 273.351C1695.05 267.817 1690.98 253.854 1689.48 248.511C1682.71 235.852 1695.37 243.072 1700.62 245.521C1712.89 240.623 1703.67 235.789 1685.41 219.091C1672.69 208.849 1665.06 219.504 1653.19 218.105C1650.55 215.56 1648.01 212.984 1645.56 210.439Z" fill="black" stroke="white" stroke-width="0.90961"/>
<path id="Turquía" fill-rule="evenodd" clip-rule="evenodd" d="M1483.83 423.633C1469.99 421.725 1455.01 427.164 1452.63 441.127C1443.25 449.619 1430.3 458.429 1417.36 458.842C1417.1 458.842 1416.88 458.81 1416.66 458.842C1416.43 459.129 1416.21 459.51 1415.96 459.828C1411.5 466.062 1402.57 460.083 1398.37 472.646C1392.2 480.82 1389.3 485.845 1381.07 490.235C1372.41 492.334 1371.78 502.861 1364.18 506.233C1363.73 506.71 1363.25 507.187 1362.78 507.632C1365.42 510.527 1368.57 513.167 1370.92 515.775C1375.98 526.239 1387.49 518.701 1394.2 525.316C1393.66 532.95 1398.02 547.358 1406.92 537.053C1413.22 529.515 1420.98 522.168 1431.67 523.344C1441.85 525.507 1446.87 514.789 1451.83 508.014C1456 498.727 1462.27 500.953 1471.33 501.462C1475.18 500.476 1481.16 497.2 1485.13 498.186C1491.08 499.681 1494.99 506.265 1499.54 507.823C1507.56 504.674 1513.92 508.618 1522.6 510.717C1531.28 512.817 1533.92 521.659 1540.98 524.935C1548.05 528.211 1563.88 527.924 1571.3 534.381C1583.45 540.838 1573.68 519.4 1580.46 514.089C1588.25 508.205 1584.56 500.444 1587.1 493.511C1580.96 489.98 1576.42 481.106 1570.02 478.021C1558.45 474.173 1546.49 468.13 1540.7 456.743C1535.07 446.502 1516.78 447.138 1515.35 432.889C1508.32 424.747 1501 422.616 1483.83 423.633Z" fill="black" stroke="white" stroke-width="0.90961"/>
<path id="Israel" fill-rule="evenodd" clip-rule="evenodd" d="M1483.54 497.995C1479.66 497.963 1474.67 500.603 1471.33 501.462C1462.27 500.953 1456 498.726 1451.83 508.014C1446.87 514.788 1441.85 525.507 1431.67 523.344C1420.98 522.167 1413.22 529.514 1406.92 537.052C1403.52 540.996 1400.82 541.251 1398.75 539.724C1396.3 547.834 1397.13 556.327 1396.97 564.692C1396.17 573.788 1406.86 576.428 1413.29 579.895C1418.56 584.061 1425.08 583.552 1431.35 583.457C1438.09 586.478 1435.64 599.169 1444.87 600.855C1453.01 604.703 1458.07 593.985 1465.86 593.412C1474.7 591.663 1474.19 582.28 1475.78 575.824C1480.49 565.678 1487.14 569.876 1485.74 562.879C1486.15 552.637 1500.18 561.511 1502.44 553.337C1508.8 550.983 1508.48 539.724 1516.14 541.919C1522.63 541.823 1525.88 534.444 1530.36 530.596C1534.11 528.751 1536.34 525.952 1537.61 522.74C1532.81 518.732 1529.76 512.435 1522.6 510.717C1513.92 508.618 1507.56 504.674 1499.54 507.823C1494.99 506.264 1491.08 499.681 1485.13 498.186C1484.63 498.059 1484.08 497.995 1483.54 497.995Z" fill="black" stroke="white" stroke-width="0.90961"/>
<path id="Arabia" fill-rule="evenodd" clip-rule="evenodd" d="M1537.61 522.741C1536.34 525.953 1534.11 528.752 1530.36 530.597C1525.88 534.445 1522.63 541.824 1516.14 541.92C1508.48 539.725 1508.8 550.984 1502.44 553.338C1500.18 561.512 1486.15 552.638 1485.74 562.88C1487.14 569.877 1480.49 565.678 1475.78 575.824C1474.19 582.281 1474.7 591.664 1465.86 593.413C1462.01 593.699 1458.83 596.403 1455.62 598.661C1456.54 601.174 1457.78 603.527 1459.28 605.817C1462.23 613.737 1471.08 615.073 1478.26 613.292C1482.11 609.539 1485.77 602.955 1491.4 608.902C1499.26 612.274 1503.68 620.066 1510.07 625.219C1517.23 627.859 1517.23 614.182 1524.1 615.168C1530.58 618.571 1529.41 630.912 1538.69 629.004C1545.95 628.845 1551.35 639.913 1558 632.28C1565.32 627.159 1561.28 617.204 1563.34 610.016C1563.38 601.842 1572.38 603.432 1575.49 597.77C1575.46 591.855 1569.07 586.893 1566.43 581.39C1562.29 573.662 1571.2 571.181 1576.16 567.968C1584.02 565.678 1578.36 555.978 1583.54 552.543C1591.43 549.776 1585.96 540.679 1580.93 537.944C1579.72 536.513 1578.61 534.954 1577.56 533.364C1576.93 535.622 1575.21 536.449 1571.3 534.382C1563.88 527.925 1548.05 528.211 1540.98 524.935C1539.74 524.363 1538.63 523.599 1537.61 522.741Z" fill="black" stroke="white" stroke-width="0.90961"/>
<path id="India" fill-rule="evenodd" clip-rule="evenodd" d="M1717.92 459.924C1714.07 462.469 1711.4 465.172 1706.98 466.476C1694.41 470.166 1677.21 475.891 1670.21 471.438C1663.18 467.017 1666.97 463.518 1658.28 465.586C1655.8 466.19 1650.74 469.339 1646.83 469.561C1640.15 469.943 1632.52 465.84 1625.08 466.572C1620.18 468.575 1615.66 473.76 1610.35 471.438C1616.39 475.954 1615.73 479.421 1612.55 482.475C1618.33 485.751 1623.87 489.631 1630.23 491.825C1638.72 494.593 1650.27 501.526 1645.66 512.118C1634.05 517.747 1645.47 528.72 1641.36 536.449C1635.19 543.287 1641.62 554.833 1633.41 560.908C1630.36 568.7 1618.62 569.94 1619.42 579.482C1621.71 587.211 1609.62 601.651 1621.61 603.845C1631.98 602.319 1638.79 608.902 1644.45 616.059C1651.92 611.701 1658.25 615.804 1663.85 621.148C1673.71 632.121 1673.64 611.065 1667.41 606.93C1662.19 600.283 1660.1 588.769 1665.82 582.09C1672.53 581.708 1679.78 582.058 1679.53 572.93C1688.75 569.018 1690.15 559.126 1695.94 551.875C1704.78 546.34 1707.9 535.59 1709.17 525.826C1710.76 518.065 1704.5 501.558 1717.03 501.876C1724.76 498.6 1729.37 490.998 1734.62 484.383C1731.37 482.252 1729.08 478.244 1725.97 475.923C1722.4 471.12 1720.3 465.395 1717.92 459.924Z" fill="black" stroke="white" stroke-width="0.90961"/>
<path id="Malasia" fill-rule="evenodd" clip-rule="evenodd" d="M1816.11 413.297C1814.29 415.11 1812 416.255 1807.68 416.096C1801.86 415.841 1793.21 422.807 1789.87 426.91C1784.01 430.885 1775.52 440.682 1767 444.117C1761.43 446.375 1761.53 443.194 1756.66 445.198C1752.56 446.916 1745.75 449.937 1741.78 450.287C1732.11 449.396 1730.99 453.213 1721.39 457.825C1720.05 458.461 1718.97 459.224 1717.92 459.924C1720.31 465.395 1722.41 471.12 1725.97 475.922C1730.55 479.326 1733.25 486.482 1739.87 485.75C1747.31 486.068 1754.08 490.076 1756.98 496.787C1761.05 501.272 1766.93 505.661 1764.04 512.594C1763.12 518.669 1765.98 527.13 1773.58 525.826C1780.04 526.144 1780.29 533.968 1780.13 538.834C1779.34 547.167 1785.6 544.909 1787.67 539.025C1790.63 533.809 1797.37 532.473 1800.71 527.416C1803.29 522.232 1805.13 516.029 1810.95 513.485C1815.5 515.234 1825.23 518.828 1823.36 509.732C1823.01 502.035 1828.1 494.433 1824.66 486.959C1827.68 479.675 1817 478.435 1819.48 471.565C1819.22 463.836 1833.47 462.882 1827.94 454.867C1825.3 448.728 1831.09 443.385 1831.4 437.374C1832.39 431.172 1826.41 426.592 1825.55 420.867C1820.88 420.008 1818.36 416.796 1816.11 413.297Z" fill="black" stroke="white" stroke-width="0.90961"/>
<path id="Japón" fill-rule="evenodd" clip-rule="evenodd" d="M1724.6 194.346C1723.36 199.562 1723.04 198.64 1725.36 203.506C1729.21 209.899 1734.87 215.719 1742.41 217.341C1750.04 221.317 1757.39 227.328 1766.49 227.106C1770.91 229.841 1772.34 236.043 1772.72 240.973C1772.56 247.62 1764.9 249.561 1762.86 254.904C1760.64 261.774 1769.7 261.043 1773.55 263.46C1776.22 266.736 1778.83 270.552 1783.54 267.372C1790.25 264.668 1794.95 256.462 1803.03 257.926C1808.41 259.102 1815.18 260.661 1817.12 266.609C1820.05 271.92 1821.51 279.235 1827.17 282.257C1831.88 282.925 1836.75 284.133 1841.52 283.37C1848.13 283.052 1849.47 275.8 1849.47 270.489C1851.09 265.145 1849.06 258.244 1842.54 258.339C1841.3 253.918 1843.39 245.426 1835.79 246.889C1830.35 245.299 1825.84 241.323 1820.62 239.192C1814.04 233.276 1814.39 223.766 1814.45 215.688C1812.26 209.931 1804.88 210.662 1799.92 209.835C1794.57 207.036 1790.76 201.788 1787.8 196.636C1786.05 190.847 1779.46 190.815 1774.54 191.611C1766.68 192.406 1758.76 192.088 1750.9 191.929C1744.29 190.593 1744.57 180.415 1736.97 179.97C1730.04 181.369 1727.75 188.78 1724.6 194.346Z" fill="black" stroke="white" stroke-width="0.90961"/>
<path id="Irán" fill-rule="evenodd" clip-rule="evenodd" d="M1450.44 265.496C1445.28 277.232 1432.66 272.621 1424.16 275.547C1423.75 281.653 1428.93 287.792 1419.71 289.891C1416.72 300.133 1435.61 286.551 1431.92 299.051C1429.79 307.225 1429.95 316.417 1438.29 320.075C1440.73 330.539 1431.96 341.448 1437.84 351.594C1446.05 351.053 1452.38 353.025 1449.67 362.758C1463.09 364.348 1459.09 380.919 1469.23 386.803C1481.41 392.433 1487.84 404.424 1494.52 415.492C1499.7 423.189 1509.4 425.797 1515.35 432.89C1516.78 447.139 1535.04 446.503 1540.67 456.744C1546.46 468.13 1558.42 474.173 1569.96 478.022C1578.9 482.348 1584.24 498.091 1595.34 494.561C1601.23 486.959 1624.73 482.157 1610.32 471.406C1599.99 466.795 1590.03 460.497 1585.23 449.779C1580.33 439.696 1576.8 427.101 1565.38 422.457C1553.14 415.301 1557.87 396.44 1544.99 389.729C1532.81 381.523 1539.62 363.235 1530.81 354.584C1516.81 355.22 1523.87 332.829 1509.12 337.123C1491.62 341.067 1498.88 320.902 1496.46 311.042C1495 295.139 1481 289.096 1467.61 286.106C1463.76 277.55 1461.69 268.422 1450.44 265.496Z" fill="black" stroke="white" stroke-width="0.90961"/>
<path id="Sumatra" fill-rule="evenodd" clip-rule="evenodd" d="M1574.83 652.125C1574.86 656.037 1575.33 654.796 1575.08 659.822C1574.83 664.847 1576.1 666.501 1578.93 670.476C1581.85 675.629 1587.23 678.873 1592.89 680.177C1597.98 682.054 1601.19 686.634 1605.8 689.21C1609.43 692.168 1613.12 695.603 1614.3 700.342C1615.82 705.208 1618.94 709.566 1622.82 712.874C1628.13 713.637 1632.81 716.754 1638.25 716.69C1644.07 715.863 1646.23 721.366 1650.01 724.387C1655.17 728.045 1662.2 730.112 1668.37 727.918C1667.95 723.719 1663.56 720.539 1661.21 717.04C1659.14 712.428 1653.7 711.57 1650.84 707.88C1647.63 699.388 1648.71 690.101 1647.91 681.227C1647.85 674.866 1650.11 668.6 1648.96 662.239C1647.28 657.563 1642.51 653.715 1637.48 653.492C1632.43 653.46 1636.27 644.237 1631.63 642.806C1625.78 641.47 1620.15 640.357 1618.88 636.158C1615.25 633.9 1610.51 633.264 1607.04 630.306C1602.91 628.207 1598.78 623.372 1593.85 626.648C1587.52 630.21 1586.4 637.907 1583.51 640.897C1580.61 643.919 1574.79 648.244 1574.83 652.125Z" fill="black" stroke="white" stroke-width="0.90961"/>
<path id="Borneo" fill-rule="evenodd" clip-rule="evenodd" d="M1741.04 540.552C1742.12 542.11 1744.32 549.33 1748.07 551.525C1752.87 552.765 1757.58 554.769 1761.72 557.314C1762.61 563.229 1755.86 564.215 1751.76 565.774C1748.17 567.937 1741.77 568.446 1744.1 574.361C1745.94 578.91 1749.76 582.599 1753.76 585.366C1758.76 586.416 1761.3 590.201 1760.16 595.258C1760.54 601.269 1759.59 607.185 1757.74 612.878C1756.53 617.681 1759.11 624.074 1764.42 624.805C1768.62 626.523 1772.15 631.675 1771.32 636.414C1771.42 642.966 1769.45 649.2 1767.16 655.243C1765.76 661.636 1758.92 658.774 1757.42 654.003C1754.59 650.059 1750.87 646.401 1745.62 646.624C1739.58 645.511 1733.95 642.68 1727.81 641.917C1720.81 642.33 1720.62 635.619 1717.92 631.103C1714.64 626.3 1713.12 620.639 1712.23 614.946C1711.15 610.143 1708.7 605.658 1704.97 602.382C1702.68 598.152 1703.58 592.841 1704.75 588.388C1706.85 582.376 1711.5 577.606 1717.12 574.775C1720.88 571.69 1723.23 567.269 1726.57 563.77C1729.75 558.904 1731.25 553.211 1732.65 547.676C1733.38 544.082 1739.96 538.994 1741.04 540.552Z" fill="black" stroke="white" stroke-width="0.90961"/>
<path id="Java" fill-rule="evenodd" clip-rule="evenodd" d="M1812.38 549.711C1812.03 545.799 1825.87 550.156 1831.5 547.548C1833.95 544.813 1838.15 537.465 1840.56 538.833C1839.8 546.912 1840.18 555.086 1839.58 563.164C1836.78 568.985 1842.5 572.992 1844.83 577.477C1846.1 582.979 1845.24 590.295 1842.03 593.952C1837.54 600.345 1836.49 600.918 1834.58 608.806C1834.01 613.418 1826.89 617.679 1821.89 620.097C1819.92 625.027 1824.5 631.738 1819.79 635.173C1815.98 637.081 1811.43 639.117 1809.49 643.251C1808.38 648.785 1810.54 653.525 1809.74 658.868C1804.66 662.494 1798.42 656.196 1794.83 652.888C1791.04 648.913 1789.8 649.008 1788.56 642.806C1789.64 637.749 1785.7 632.596 1786.05 627.348C1786.37 622.1 1784.74 619.683 1785.98 614.785C1787.38 609.124 1791.81 609.251 1792.76 603.208C1795.11 597.451 1792.89 590.804 1791.81 585.46C1790.72 579.799 1795.24 574.583 1800.01 572.229C1805.64 570.989 1810.41 566.727 1811.91 561.097C1813.21 557.312 1812.77 553.591 1812.38 549.711Z" fill="black" stroke="white" stroke-width="0.90961"/>
<path id="Australia" fill-rule="evenodd" clip-rule="evenodd" d="M1832.39 708.327C1823.99 716.469 1823.71 721.431 1815.79 726.106C1814.83 729.986 1814.71 742.073 1809.27 733.612C1804.53 730.145 1795.34 735.139 1795.59 725.661C1791.36 717.01 1801.44 710.458 1802.11 703.715C1794.51 699.866 1785.86 704.287 1782.58 711.698C1778.22 718.441 1765.06 719.777 1766.9 708.835C1766.27 699.071 1780.67 699.516 1782.42 690.611C1778.67 682.723 1765.79 687.017 1760.67 692.042C1751.57 695.763 1753.26 706.355 1748.74 712.748C1740.98 717.996 1741.68 728.682 1731.85 730.813C1734.94 741.659 1717.38 743.408 1720.12 732.976C1721.07 729.605 1720.59 723.88 1717.63 729.796C1713.15 736.888 1711.05 745.476 1704.44 751.137C1698.87 754.763 1701.73 763.382 1699.89 766.976C1695.94 760.424 1682.62 760.552 1680.26 768.44C1674.67 775.087 1678.39 783.515 1676 791.053C1673.68 795.792 1675.75 800.659 1679.91 802.058C1675.46 813.127 1692.54 812.84 1692.83 803.235C1693.11 798.051 1704.28 785.837 1702.34 797.192C1700.36 806.034 1708.25 809.374 1715.31 805.334C1719.86 801.867 1725.17 793.184 1729.08 802.44C1731.12 809.469 1728.16 819.265 1737.39 822.382C1743.78 824.163 1744.07 833.578 1737.13 834.182C1731.95 844.773 1747.4 846.173 1753.54 848.176C1757.14 856.541 1767.89 852.756 1772.5 847.445C1777.68 841.402 1782.58 835.041 1788.34 829.506C1795.53 827.535 1804.31 832.337 1809.46 824.736C1815.82 820.728 1816.74 813.54 1819.73 807.147C1821.38 804.984 1831.69 809.31 1832.77 800.945C1833.88 792.167 1842.03 794.997 1844.44 790.29C1845.97 787.332 1841.9 779.19 1841.9 776.741C1841.9 770.411 1838.85 769.966 1838.85 763.192C1838.85 759.693 1841.84 757.307 1843.2 751.01C1844.48 745.189 1839.93 734.725 1841.14 730.654C1845.88 714.847 1842.47 706.196 1832.39 708.327Z" fill="black" stroke="white" stroke-width="0.800175"/>
</svg>
